<mxfile host="app.diagrams.net" modified="2022-03-12T00:00:30.294Z" agent="5.0 (Windows NT 10.0; Win64; x64) AppleWebKit/537.36 (KHTML, like Gecko) Chrome/99.0.4844.51 Safari/537.36" etag="h6nUcj6CzAtvz59Wy0yw" version="16.5.5" type="github">
  <diagram id="kyv-Pfv23gA9csW_IkZh" name="Page-1">
    <mxGraphModel dx="2214" dy="781" grid="1" gridSize="10" guides="1" tooltips="1" connect="1" arrows="1" fold="1" page="1" pageScale="1" pageWidth="827" pageHeight="1169" math="0" shadow="0">
      <root>
        <mxCell id="0" />
        <mxCell id="1" parent="0" />
        <mxCell id="82b8sqedpG5tDT-W9cHj-4" value="" style="whiteSpace=wrap;html=1;aspect=fixed;" vertex="1" parent="1">
          <mxGeometry x="100" y="80" width="620" height="620" as="geometry" />
        </mxCell>
        <mxCell id="82b8sqedpG5tDT-W9cHj-2" value="&lt;b&gt;&lt;br&gt;¿QUÉ ES UNA BD?&lt;/b&gt;&lt;br&gt;&lt;br&gt;&lt;span&gt;Coleccion de datos relacionados que sirven un proposito&lt;/span&gt;" style="ellipse;whiteSpace=wrap;html=1;" vertex="1" parent="1">
          <mxGeometry x="150" y="190" width="170" height="100" as="geometry" />
        </mxCell>
        <mxCell id="82b8sqedpG5tDT-W9cHj-3" value="&lt;b&gt;&lt;br&gt;¿QUÉ ES UN DATO?&lt;/b&gt;&lt;br&gt;&lt;br&gt;Representa hechos cnocidos que pueden registrarse y tienen un resultado implícito" style="ellipse;whiteSpace=wrap;html=1;" vertex="1" parent="1">
          <mxGeometry x="460" y="170" width="170" height="100" as="geometry" />
        </mxCell>
        <mxCell id="82b8sqedpG5tDT-W9cHj-5" value="Representa aspectos del mundo real" style="text;html=1;strokeColor=none;fillColor=none;align=center;verticalAlign=middle;whiteSpace=wrap;rounded=0;" vertex="1" parent="1">
          <mxGeometry x="140" y="350" width="210" height="30" as="geometry" />
        </mxCell>
        <mxCell id="82b8sqedpG5tDT-W9cHj-6" value="Colección coherente de datos con significado inherente. Una BD no puede ser un conjunto aleatorio de datos" style="text;html=1;strokeColor=none;fillColor=none;align=center;verticalAlign=middle;whiteSpace=wrap;rounded=0;" vertex="1" parent="1">
          <mxGeometry x="140" y="400" width="210" height="30" as="geometry" />
        </mxCell>
        <mxCell id="82b8sqedpG5tDT-W9cHj-7" value="Text" style="text;html=1;strokeColor=none;fillColor=none;align=center;verticalAlign=middle;whiteSpace=wrap;rounded=0;" vertex="1" parent="1">
          <mxGeometry x="140" y="490" width="60" height="30" as="geometry" />
        </mxCell>
      </root>
    </mxGraphModel>
  </diagram>
</mxfile>
